<svg width="210.68251953125px" height="120.8px" xmlns="http://www.w3.org/2000/svg" viewBox="144.658740234375 14.600000000000001 210.68251953125 120.8" style="background: rgb(238, 0, 0);" preserveAspectRatio="xMidYMid"><defs><filter id="editing-lego" x="-100%" y="-100%" width="300%" height="300%"><feFlood flood-color="#000" result="f1"></feFlood><feFlood flood-color="#ffff00" result="f2"></feFlood><feMorphology operator="dilate" radius="3" in="SourceAlpha"></feMorphology><feConvolveMatrix order="5,5" divisor="1" result="cm1" kernelMatrix="0 1 1 1 0  1 0 0 0 1  1 0 0 0 1  1 0 0 0 1  0 1 1 1 0"></feConvolveMatrix><feComposite operator="in" in="f1" in2="cm1" result="c1"></feComposite><feMorphology operator="dilate" radius="3"></feMorphology><feConvolveMatrix order="5,5" divisor="1" result="cm2" kernelMatrix="0 1 1 1 0  1 0 0 0 1  1 0 0 0 1  1 0 0 0 1  0 1 1 1 0"></feConvolveMatrix><feComposite operator="in" in="f2" in2="cm2" result="c2"></feComposite><feMerge><feMergeNode in="c2"></feMergeNode><feMergeNode in="c1"></feMergeNode><feMergeNode in="SourceGraphic"></feMergeNode></feMerge></filter></defs><g filter="url(#editing-lego)"><g transform="translate(180.04343870282173, 104.76000022888184)"><path d="M0.45-0.32L0.45-0.32L8.51-42.24L8.51-42.24Q16.06-42.88 20.93-42.88L20.93-42.88L20.93-42.88Q25.79-42.88 28.93-42.46L28.93-42.46L28.93-42.46Q32.06-42.05 34.18-40.96L34.18-40.96L34.18-40.96Q38.40-38.91 38.40-33.28L38.40-33.28L38.40-33.28Q38.40-30.02 35.58-27.26L35.58-27.26L35.58-27.26Q32.96-24.77 30.08-24.19L30.08-24.19L30.08-24.19Q33.15-23.68 35.33-21.38L35.33-21.38L35.33-21.38Q37.63-18.94 37.63-15.17L37.63-15.17L37.63-15.17Q37.63-7.87 32.19-3.62L32.19-3.62L32.19-3.62Q26.75 0.64 16.06 0.64L16.06 0.64L16.06 0.64Q8.70 0.64 0.45-0.32ZM17.86-20.61L14.66-4.03L14.66-4.03Q15.23-3.97 15.36-3.97L15.36-3.97L15.94-3.97L15.94-3.97Q21.18-3.97 23.42-7.42L23.42-7.42L23.42-7.42Q25.09-10.11 25.09-15.04L25.09-15.04L25.09-15.04Q25.09-17.66 23.39-19.07L23.39-19.07L23.39-19.07Q21.70-20.48 17.86-20.61L17.86-20.61ZM27.58-33.22L27.58-33.22L27.58-33.22Q27.58-38.53 22.46-38.53L22.46-38.53L21.89-38.53L21.89-38.53Q21.63-38.53 21.25-38.46L21.25-38.46L18.69-24.96L19.33-24.96L19.33-24.96Q27.58-25.15 27.58-33.22ZM44.64-1.92L44.64-1.92L44.64-1.92Q43.14-3.58 42.46-6.21L42.46-6.21L42.46-6.21Q41.79-8.83 41.79-13.12L41.79-13.12L41.79-13.12Q41.79-17.41 43.26-21.31L43.26-21.31L43.26-21.31Q44.74-25.22 47.42-28.03L47.42-28.03L47.42-28.03Q52.93-33.92 62.02-33.92L62.02-33.92L62.02-33.92Q65.28-33.92 67.65-32.83L67.65-32.83L78.59-33.92L73.86-8.96L73.86-8.96Q73.66-8.19 73.66-6.78L73.66-6.78L73.66-6.78Q73.66-5.38 74.53-4.48L74.53-4.48L74.53-4.48Q75.39-3.58 76.67-3.46L76.67-3.46L76.67-3.46Q76.03-1.28 73.70 0L73.70 0L73.70 0Q71.36 1.28 68.74 1.28L68.74 1.28L68.74 1.28Q66.11 1.28 64.35 0.29L64.35 0.29L64.35 0.29Q62.59-0.70 62.08-2.37L62.08-2.37L62.08-2.37Q61.06-0.77 58.88 0.26L58.88 0.26L58.88 0.26Q56.70 1.28 53.79 1.28L53.79 1.28L53.79 1.28Q50.88 1.28 48.51 0.51L48.51 0.51L48.51 0.51Q46.14-0.26 44.64-1.92ZM58.14-27.90L58.14-27.90L58.14-27.90Q57.41-26.75 56.77-24.80L56.77-24.80L56.77-24.80Q56.13-22.85 55.07-17.63L55.07-17.63L55.07-17.63Q54.02-12.42 54.02-8.70L54.02-8.70L54.02-8.70Q54.02-4.99 54.59-3.90L54.59-3.90L54.59-3.90Q55.17-2.82 56.19-2.82L56.19-2.82L56.19-2.82Q58.24-2.82 59.74-4.77L59.74-4.77L59.74-4.77Q61.25-6.72 61.82-10.18L61.82-10.18L65.22-28.93L65.22-28.93Q63.87-30.08 62.30-30.08L62.30-30.08L62.30-30.08Q60.74-30.08 59.81-29.57L59.81-29.57L59.81-29.57Q58.88-29.06 58.14-27.90ZM86.34-26.75L86.34-26.75L86.34-26.75Q88.51-29.82 91.81-31.87L91.81-31.87L91.81-31.87Q95.10-33.92 99.14-33.92L99.14-33.92L99.14-33.92Q103.17-33.92 105.09-32.64L105.09-32.64L117.63-33.92L113.28-9.34L113.28-9.34Q111.04 3.20 106.30 8.13L106.30 8.13L106.30 8.13Q101.76 12.80 92.93 12.80L92.93 12.80L92.93 12.80Q86.21 12.80 82.37 10.69L82.37 10.69L82.37 10.69Q78.53 8.58 78.53 5.06L78.53 5.06L78.53 5.06Q78.53 2.43 80.51 0.93L80.51 0.93L80.51 0.93Q82.50-0.58 85.57-0.58L85.57-0.58L85.57-0.58Q88.26-0.58 90.30 0.64L90.30 0.64L90.30 0.64Q91.52 1.28 92.10 2.18L92.10 2.18L92.10 2.18Q90.62 3.46 90.62 5.57L90.62 5.57L90.62 5.57Q90.62 8.32 93.18 8.32L93.18 8.32L93.18 8.32Q97.47 8.32 99.90-1.79L99.90-1.79L99.90-1.79Q100.61-4.54 101.18-7.30L101.18-7.30L101.18-7.30Q98.30-3.78 91.78-3.78L91.78-3.78L91.78-3.78Q87.23-3.78 84.61-5.95L84.61-5.95L84.61-5.95Q81.98-8.13 81.98-13.25L81.98-13.25L81.98-13.25Q81.98-16.45 83.07-20.06L83.07-20.06L83.07-20.06Q84.16-23.68 86.34-26.75ZM94.66-13.06L94.66-13.06L94.66-13.06Q94.66-8.70 96.90-8.70L96.90-8.70L96.90-8.70Q98.43-8.70 99.90-10.37L99.90-10.37L99.90-10.37Q101.06-11.71 101.50-13.70L101.50-13.70L104.77-30.14L104.77-30.14Q104.45-30.21 104.13-30.34L104.13-30.34L104.13-30.34Q103.49-30.59 102.66-30.59L102.66-30.59L102.66-30.59Q98.75-30.59 96.45-24.19L96.45-24.19L96.45-24.19Q94.66-19.20 94.66-13.06ZM135.49-3.52L135.49-3.52L135.49-3.52Q133.50 1.28 127.17 1.28L127.17 1.28L127.17 1.28Q123.90 1.28 121.86-0.96L121.86-0.96L121.86-0.96Q120.13-2.94 120.13-4.93L120.13-4.93L120.13-4.93Q120.13-10.11 122.50-20.22L122.50-20.22L124.86-32.64L137.86-33.92L133.95-13.70L133.95-13.70Q132.86-8.96 132.86-7.30L132.86-7.30L132.86-7.30Q132.86-3.65 135.49-3.52ZM126.02-41.54L126.02-41.54L126.02-41.54Q126.02-44.03 128.10-45.38L128.10-45.38L128.10-45.38Q130.18-46.72 133.18-46.72L133.18-46.72L133.18-46.72Q136.19-46.72 138.02-45.38L138.02-45.38L138.02-45.38Q139.84-44.03 139.84-41.54L139.84-41.54L139.84-41.54Q139.84-39.04 137.82-37.76L137.82-37.76L137.82-37.76Q135.81-36.48 132.80-36.48L132.80-36.48L132.80-36.48Q129.79-36.48 127.90-37.76L127.90-37.76L127.90-37.76Q126.02-39.04 126.02-41.54Z" fill="#fff"></path></g></g><style>text {
  font-size: 64px;
  font-family: Arial Black;
  dominant-baseline: central;
  text-anchor: middle;
}</style></svg>