<svg width="287.9839721679687px" height="163.04000549316405px" xmlns="http://www.w3.org/2000/svg" viewBox="106.00801391601564 -6.520002746582023 287.9839721679687 163.04000549316405" style="background: rgba(255, 255, 255, 0);" preserveAspectRatio="xMidYMid"><defs><filter id="editing-vintage" x="-100%" y="-100%" width="300%" height="300%"><feConvolveMatrix in="SourceGraphic" result="extrude" order="6,6" divisor="1" kernelMatrix="1,0,0,0,0,0,0,1,0,0,0,0,0,0,1,0,0,0,0,0,0,1,0,0,0,0,0,0,1,0,0,0,0,0,0,1"> </feConvolveMatrix><feFlood flood-color="#000000" result="flood-extrude"></feFlood><feComposite operator="in" in="flood-extrude" in2="extrude" result="extrude-color"></feComposite><feOffset dx="3" dy="3" in="extrude-color" result="extrude-offset"></feOffset><feColorMatrix in="SourceGraphic" result="stroke" type="matrix" values="0 0 0 0 0 0 0 0 0 0 0 0 0 0 0 0 1 0 0 0 "></feColorMatrix><feColorMatrix in="SourceGraphic" result="fill" type="matrix" values="0 0 0 0 0 0 0 0 0 0 0 0 0 0 0 1 0 0 1 0 "></feColorMatrix><feConvolveMatrix in="stroke" result="inner-shadow" order="5,5" divisor="1" kernelMatrix="1 0 0 0 0 0 1 0 0 0 0 0 1 0 0 0 0 0 1 0 0 0 0 0 1 "></feConvolveMatrix><feOffset dx="1" dy="1" in="inner-shadow" result="offset"></feOffset><feComposite operator="in" in="offset" in2="SourceAlpha" result="comp"></feComposite><feFlood flood-color="#000" result="flood3"></feFlood><feComposite operator="in" in="flood3" in2="comp" result="comp2"></feComposite><feColorMatrix in="comp2" result="comp3" type="matrix" values="1 0 0 0 0 0 1 0 0 0 0 0 1 0 0 0 0 0 0.5 0 "></feColorMatrix><feFlood flood-color="#000000" result="flood1"></feFlood><feComposite operator="in" in="flood1" in2="fill" result="fill2"></feComposite><feFlood flood-color="#fff" result="flood2"></feFlood><feComposite operator="in" in="flood2" in2="stroke" result="stroke2"></feComposite><feMerge result="obj"><feMergeNode in="extrude-offset"></feMergeNode><feMergeNode in="fill2"></feMergeNode><feMergeNode in="comp3"></feMergeNode></feMerge><feConvolveMatrix in="SourceAlpha" result="shadow" order="6,6" divisor="1" kernelMatrix="1,0,0,0,0,0,0,1,0,0,0,0,0,0,1,0,0,0,0,0,0,1,0,0,0,0,0,0,1,0,0,0,0,0,0,1"></feConvolveMatrix><feOffset dx="9" dy="9" in="shadow" result="shadow-offset"></feOffset><feFlood flood-color="#444444" result="flood-shadow"></feFlood><feComposite operator="in" in="flood-shadow" in2="shadow-offset" result="shadow-color"></feComposite><feMerge><feMergeNode in="shadow-color"></feMergeNode><feMergeNode in="obj"></feMergeNode></feMerge></filter></defs><g transform="translate(-6,-6)"><g filter="url(#editing-vintage)"><g transform="translate(151.55634033679962, 116.85000228881836)"><path d="M0.63-0.45L0.63-0.45L11.97-59.40L11.97-59.40Q22.59-60.30 29.43-60.30L29.43-60.30L29.43-60.30Q36.27-60.30 40.68-59.71L40.68-59.71L40.68-59.71Q45.09-59.13 48.06-57.60L48.06-57.60L48.06-57.60Q54-54.72 54-46.80L54-46.80L54-46.80Q54-42.21 50.04-38.34L50.04-38.34L50.04-38.34Q46.35-34.83 42.30-34.02L42.30-34.02L42.30-34.02Q46.62-33.30 49.68-30.06L49.68-30.06L49.68-30.06Q52.92-26.64 52.92-21.33L52.92-21.33L52.92-21.33Q52.92-11.07 45.27-5.08L45.27-5.08L45.27-5.08Q37.62 0.90 22.59 0.90L22.59 0.90L22.59 0.90Q12.24 0.90 0.63-0.45ZM25.11-28.98L20.61-5.67L20.61-5.67Q21.42-5.58 21.60-5.58L21.60-5.58L22.41-5.58L22.41-5.58Q29.79-5.58 32.94-10.44L32.94-10.44L32.94-10.44Q35.28-14.22 35.28-21.15L35.28-21.15L35.28-21.15Q35.28-24.84 32.89-26.82L32.89-26.82L32.89-26.82Q30.51-28.80 25.11-28.98L25.11-28.98ZM38.79-46.71L38.79-46.71L38.79-46.71Q38.79-54.18 31.59-54.18L31.59-54.18L30.78-54.18L30.78-54.18Q30.42-54.18 29.88-54.09L29.88-54.09L26.28-35.10L27.18-35.10L27.18-35.10Q38.79-35.37 38.79-46.71ZM62.77-2.70L62.77-2.70L62.77-2.70Q60.66-5.04 59.71-8.73L59.71-8.73L59.71-8.73Q58.77-12.42 58.77-18.45L58.77-18.45L58.77-18.45Q58.77-24.48 60.84-29.97L60.84-29.97L60.84-29.97Q62.91-35.46 66.69-39.42L66.69-39.42L66.69-39.42Q74.43-47.70 87.21-47.70L87.21-47.70L87.21-47.70Q91.80-47.70 95.13-46.17L95.13-46.17L110.52-47.70L103.86-12.60L103.86-12.60Q103.59-11.52 103.59-9.54L103.59-9.54L103.59-9.54Q103.59-7.56 104.81-6.30L104.81-6.30L104.81-6.30Q106.02-5.04 107.82-4.86L107.82-4.86L107.82-4.86Q106.92-1.80 103.63 0L103.63 0L103.63 0Q100.35 1.80 96.66 1.80L96.66 1.80L96.66 1.80Q92.97 1.80 90.50 0.40L90.50 0.40L90.50 0.40Q88.02-0.99 87.30-3.33L87.30-3.33L87.30-3.33Q85.86-1.08 82.80 0.36L82.80 0.36L82.80 0.36Q79.74 1.80 75.64 1.80L75.64 1.80L75.64 1.80Q71.55 1.80 68.22 0.72L68.22 0.72L68.22 0.72Q64.89-0.36 62.77-2.70ZM81.77-39.24L81.77-39.24L81.77-39.24Q80.73-37.62 79.83-34.88L79.83-34.88L79.83-34.88Q78.93-32.13 77.44-24.79L77.44-24.79L77.44-24.79Q75.96-17.46 75.96-12.24L75.96-12.24L75.96-12.24Q75.96-7.02 76.77-5.49L76.77-5.49L76.77-5.49Q77.58-3.96 79.02-3.96L79.02-3.96L79.02-3.96Q81.90-3.96 84.02-6.71L84.02-6.71L84.02-6.71Q86.13-9.45 86.94-14.31L86.94-14.31L91.71-40.68L91.71-40.68Q89.82-42.30 87.61-42.30L87.61-42.30L87.61-42.30Q85.41-42.30 84.10-41.58L84.10-41.58L84.10-41.58Q82.80-40.86 81.77-39.24ZM121.41-37.62L121.41-37.62L121.41-37.62Q124.47-41.94 129.10-44.82L129.10-44.82L129.10-44.82Q133.74-47.70 139.41-47.70L139.41-47.70L139.41-47.70Q145.08-47.70 147.78-45.90L147.78-45.90L165.42-47.70L159.30-13.14L159.30-13.14Q156.15 4.50 149.49 11.43L149.49 11.43L149.49 11.43Q143.10 18 130.68 18L130.68 18L130.68 18Q121.23 18 115.83 15.03L115.83 15.03L115.83 15.03Q110.43 12.06 110.43 7.11L110.43 7.11L110.43 7.11Q110.43 3.42 113.22 1.30L113.22 1.30L113.22 1.30Q116.01-0.81 120.33-0.81L120.33-0.81L120.33-0.81Q124.11-0.81 126.99 0.90L126.99 0.90L126.99 0.90Q128.70 1.80 129.51 3.06L129.51 3.06L129.51 3.06Q127.44 4.86 127.44 7.83L127.44 7.83L127.44 7.83Q127.44 11.70 131.04 11.70L131.04 11.70L131.04 11.70Q137.07 11.70 140.49-2.52L140.49-2.52L140.49-2.52Q141.48-6.39 142.29-10.26L142.29-10.26L142.29-10.26Q138.24-5.31 129.06-5.31L129.06-5.31L129.06-5.31Q122.67-5.31 118.98-8.37L118.98-8.37L118.98-8.37Q115.29-11.43 115.29-18.63L115.29-18.63L115.29-18.63Q115.29-23.13 116.82-28.21L116.82-28.21L116.82-28.21Q118.35-33.30 121.41-37.62ZM133.11-18.36L133.11-18.36L133.11-18.36Q133.11-12.24 136.26-12.24L136.26-12.24L136.26-12.24Q138.42-12.24 140.49-14.58L140.49-14.58L140.49-14.58Q142.11-16.47 142.74-19.26L142.74-19.26L147.33-42.39L147.33-42.39Q146.88-42.48 146.43-42.66L146.43-42.66L146.43-42.66Q145.53-43.02 144.36-43.02L144.36-43.02L144.36-43.02Q138.87-43.02 135.63-34.02L135.63-34.02L135.63-34.02Q133.11-27 133.11-18.36ZM190.53-4.95L190.53-4.95L190.53-4.95Q187.74 1.80 178.83 1.80L178.83 1.80L178.83 1.80Q174.24 1.80 171.36-1.35L171.36-1.35L171.36-1.35Q168.93-4.14 168.93-6.93L168.93-6.93L168.93-6.93Q168.93-14.22 172.26-28.44L172.26-28.44L175.59-45.90L193.86-47.70L188.37-19.26L188.37-19.26Q186.84-12.60 186.84-10.26L186.84-10.26L186.84-10.26Q186.84-5.13 190.53-4.95ZM177.21-58.41L177.21-58.41L177.21-58.41Q177.21-61.92 180.13-63.81L180.13-63.81L180.13-63.81Q183.06-65.70 187.29-65.70L187.29-65.70L187.29-65.70Q191.52-65.70 194.08-63.81L194.08-63.81L194.08-63.81Q196.65-61.92 196.65-58.41L196.65-58.41L196.65-58.41Q196.65-54.90 193.81-53.10L193.81-53.10L193.81-53.10Q190.98-51.30 186.75-51.30L186.75-51.30L186.75-51.30Q182.52-51.30 179.86-53.10L179.86-53.10L179.86-53.10Q177.21-54.90 177.21-58.41Z" fill="#f00" stroke="#0f0" stroke-width="1.8"></path></g></g><g><g transform="translate(151.53383362293243, 116.8499984741211)"><path d="M0.63-0.45L0.63-0.45L11.97-59.40L11.97-59.40Q22.59-60.30 29.43-60.30L29.43-60.30L29.43-60.30Q36.27-60.30 40.68-59.71L40.68-59.71L40.68-59.71Q45.09-59.13 48.06-57.60L48.06-57.60L48.06-57.60Q54-54.72 54-46.80L54-46.80L54-46.80Q54-42.21 50.04-38.34L50.04-38.34L50.04-38.34Q46.35-34.83 42.30-34.02L42.30-34.02L42.30-34.02Q46.62-33.30 49.68-30.06L49.68-30.06L49.68-30.06Q52.92-26.64 52.92-21.33L52.92-21.33L52.92-21.33Q52.92-11.07 45.27-5.08L45.27-5.08L45.27-5.08Q37.62 0.90 22.59 0.90L22.59 0.90L22.59 0.90Q12.24 0.90 0.63-0.45ZM25.11-28.98L20.61-5.67L20.61-5.67Q21.42-5.58 21.60-5.58L21.60-5.58L22.41-5.58L22.41-5.58Q29.79-5.58 32.94-10.44L32.94-10.44L32.94-10.44Q35.28-14.22 35.28-21.15L35.28-21.15L35.28-21.15Q35.28-24.84 32.89-26.82L32.89-26.82L32.89-26.82Q30.51-28.80 25.11-28.98L25.11-28.98ZM38.79-46.71L38.79-46.71L38.79-46.71Q38.79-54.18 31.59-54.18L31.59-54.18L30.78-54.18L30.78-54.18Q30.42-54.18 29.88-54.09L29.88-54.09L26.28-35.10L27.18-35.10L27.18-35.10Q38.79-35.37 38.79-46.71ZM62.77-2.70L62.77-2.70L62.77-2.70Q60.66-5.04 59.71-8.73L59.71-8.73L59.71-8.73Q58.77-12.42 58.77-18.45L58.77-18.45L58.77-18.45Q58.77-24.48 60.84-29.97L60.84-29.97L60.84-29.97Q62.91-35.46 66.69-39.42L66.69-39.42L66.69-39.42Q74.43-47.70 87.21-47.70L87.21-47.70L87.21-47.70Q91.80-47.70 95.13-46.17L95.13-46.17L110.52-47.70L103.86-12.60L103.86-12.60Q103.59-11.52 103.59-9.54L103.59-9.54L103.59-9.54Q103.59-7.56 104.81-6.30L104.81-6.30L104.81-6.30Q106.02-5.04 107.82-4.86L107.82-4.86L107.82-4.86Q106.92-1.80 103.63 0L103.63 0L103.63 0Q100.35 1.80 96.66 1.80L96.66 1.80L96.66 1.80Q92.97 1.80 90.50 0.40L90.50 0.40L90.50 0.40Q88.02-0.99 87.30-3.33L87.30-3.33L87.30-3.33Q85.86-1.08 82.80 0.36L82.80 0.36L82.80 0.36Q79.74 1.80 75.64 1.80L75.64 1.80L75.64 1.80Q71.55 1.80 68.22 0.72L68.22 0.72L68.22 0.72Q64.89-0.36 62.77-2.70ZM81.77-39.24L81.77-39.24L81.77-39.24Q80.73-37.62 79.83-34.88L79.83-34.88L79.83-34.88Q78.93-32.13 77.44-24.79L77.44-24.79L77.44-24.79Q75.96-17.46 75.96-12.24L75.96-12.24L75.96-12.24Q75.96-7.02 76.77-5.49L76.77-5.49L76.77-5.49Q77.58-3.96 79.02-3.96L79.02-3.96L79.02-3.96Q81.90-3.96 84.02-6.71L84.02-6.71L84.02-6.71Q86.13-9.45 86.94-14.31L86.94-14.31L91.71-40.68L91.71-40.68Q89.82-42.30 87.61-42.30L87.61-42.30L87.61-42.30Q85.41-42.30 84.10-41.58L84.10-41.58L84.10-41.58Q82.80-40.86 81.77-39.24ZM121.41-37.62L121.41-37.62L121.41-37.62Q124.47-41.94 129.10-44.82L129.10-44.82L129.10-44.82Q133.74-47.70 139.41-47.70L139.41-47.70L139.41-47.70Q145.08-47.70 147.78-45.90L147.78-45.90L165.42-47.70L159.30-13.14L159.30-13.14Q156.15 4.50 149.49 11.43L149.49 11.43L149.49 11.43Q143.10 18 130.68 18L130.68 18L130.68 18Q121.23 18 115.83 15.03L115.83 15.03L115.83 15.03Q110.43 12.06 110.43 7.11L110.43 7.11L110.43 7.11Q110.43 3.42 113.22 1.30L113.22 1.30L113.22 1.30Q116.01-0.81 120.33-0.81L120.33-0.81L120.33-0.81Q124.11-0.81 126.99 0.90L126.99 0.90L126.99 0.90Q128.70 1.80 129.51 3.06L129.51 3.06L129.51 3.06Q127.44 4.86 127.44 7.83L127.44 7.83L127.44 7.83Q127.44 11.70 131.04 11.70L131.04 11.70L131.04 11.70Q137.07 11.70 140.49-2.52L140.49-2.52L140.49-2.52Q141.48-6.39 142.29-10.26L142.29-10.26L142.29-10.26Q138.24-5.31 129.06-5.31L129.06-5.31L129.06-5.31Q122.67-5.31 118.98-8.37L118.98-8.37L118.98-8.37Q115.29-11.43 115.29-18.63L115.29-18.63L115.29-18.63Q115.29-23.13 116.82-28.21L116.82-28.21L116.82-28.21Q118.35-33.30 121.41-37.62ZM133.11-18.36L133.11-18.36L133.11-18.36Q133.11-12.24 136.26-12.24L136.26-12.24L136.26-12.24Q138.42-12.24 140.49-14.58L140.49-14.58L140.49-14.58Q142.11-16.47 142.74-19.26L142.74-19.26L147.33-42.39L147.33-42.39Q146.88-42.48 146.43-42.66L146.43-42.66L146.43-42.66Q145.53-43.02 144.36-43.02L144.36-43.02L144.36-43.02Q138.87-43.02 135.63-34.02L135.63-34.02L135.63-34.02Q133.11-27 133.11-18.36ZM190.53-4.95L190.53-4.95L190.53-4.95Q187.74 1.80 178.83 1.80L178.83 1.80L178.83 1.80Q174.24 1.80 171.36-1.35L171.36-1.35L171.36-1.35Q168.93-4.14 168.93-6.93L168.93-6.93L168.93-6.93Q168.93-14.22 172.26-28.44L172.26-28.44L175.59-45.90L193.86-47.70L188.37-19.26L188.37-19.26Q186.84-12.60 186.84-10.26L186.84-10.26L186.84-10.26Q186.84-5.13 190.53-4.95ZM177.21-58.41L177.21-58.41L177.21-58.41Q177.21-61.92 180.13-63.81L180.13-63.81L180.13-63.81Q183.06-65.70 187.29-65.70L187.29-65.70L187.29-65.70Q191.52-65.70 194.08-63.81L194.08-63.81L194.08-63.81Q196.65-61.92 196.65-58.41L196.65-58.41L196.65-58.41Q196.65-54.90 193.81-53.10L193.81-53.10L193.81-53.10Q190.98-51.30 186.75-51.30L186.75-51.30L186.75-51.30Q182.52-51.30 179.86-53.10L179.86-53.10L179.86-53.10Q177.21-54.90 177.21-58.41Z" fill="none" stroke="#fff" stroke-width="2.1"></path></g></g></g><style>text {
  font-size: 64px;
  font-family: Arial Black;
  dominant-baseline: central;
  text-anchor: middle;
}</style></svg>